<svg width="28" height="28" viewBox="0 0 28 28" fill="none" xmlns="http://www.w3.org/2000/svg">
<path d="M13.9999 25.6667C20.4432 25.6667 25.6666 20.4434 25.6666 14C25.6666 7.55672 20.4432 2.33337 13.9999 2.33337C7.5566 2.33337 2.33325 7.55672 2.33325 14C2.33325 20.4434 7.5566 25.6667 13.9999 25.6667Z" stroke="white" stroke-width="1.5" stroke-miterlimit="10" stroke-linecap="round" stroke-linejoin="round"/>
<path d="M13.9999 17.36C12.9383 17.36 12.075 16.4966 12.075 15.435V12.5533C12.075 11.4917 12.9383 10.6283 13.9999 10.6283C15.0616 10.6283 15.9249 11.4917 15.9249 12.5533V15.435C15.9249 16.4966 15.0616 17.36 13.9999 17.36Z" stroke="white" stroke-width="1.5" stroke-linecap="round"/>
<path d="M19.8101 15.715C19.5767 18.725 17.0567 21.0817 14.0001 21.0817C10.7801 21.0817 8.16675 18.4684 8.16675 15.2484V12.7517C8.16675 9.53167 10.7801 6.91833 14.0001 6.91833C17.0217 6.91833 19.5067 9.21666 19.7984 12.1567" stroke="white" stroke-width="1.5" stroke-linecap="round"/>
</svg>
