<svg width="28" height="28" viewBox="0 0 28 28" fill="none" xmlns="http://www.w3.org/2000/svg">
<path d="M12.2383 2.60169L6.4166 4.79503C5.07494 5.29669 3.97827 6.88336 3.97827 8.30669V16.975C3.97827 18.3517 4.88827 20.16 5.9966 20.9884L11.0133 24.7334C12.6583 25.97 15.3649 25.97 17.0099 24.7334L22.0266 20.9884C23.1349 20.16 24.0449 18.3517 24.0449 16.975V8.30669C24.0449 6.87169 22.9483 5.28503 21.6066 4.78336L15.7849 2.60169C14.7933 2.24003 13.2066 2.24003 12.2383 2.60169Z" stroke="white" stroke-width="1.5" stroke-linecap="round" stroke-linejoin="round"/>
<path d="M14.0001 14.5833C15.2887 14.5833 16.3334 13.5386 16.3334 12.25C16.3334 10.9613 15.2887 9.91663 14.0001 9.91663C12.7114 9.91663 11.6667 10.9613 11.6667 12.25C11.6667 13.5386 12.7114 14.5833 14.0001 14.5833Z" stroke="white" stroke-width="1.5" stroke-miterlimit="10" stroke-linecap="round" stroke-linejoin="round"/>
<path d="M14 14.5834V18.0834" stroke="white" stroke-width="1.5" stroke-miterlimit="10" stroke-linecap="round" stroke-linejoin="round"/>
</svg>
